<?xml version="1.0" encoding="UTF-8"?>
<svg version="1.1" viewBox="0 0 2048 872" width="1280" height="1280" xmlns="http://www.w3.org/2000/svg">
<path transform="translate(360,36)" d="m0 0h26l21 3 21 6 19 8 14 8 14 11 11 11 10 14 9 17 7 21 4 21 1 11v15l-2 20-5 23-9 25-6 11-8 7-11 4h-9l-10-3-10-9-3-9 1-10 10-33 3-15 1-9v-20l-3-17-6-17-7-12-8-10-8-7-14-8-13-5-9-2-9-1h-13l-20 3-17 5-18 8-18 10-20 14-14 11-15 13-25 25-9 11-13 16-14 20-15 24-15 27-15 30-13 31-10 28-8 28-7 30-5 30-3 29v40l3 25 5 22 9 27 11 23 11 18 9 12 9 11 11 12 14 14 11 9 17 13 21 13 21 11 27 11 27 8 28 6 31 4 16 1h48l34-3 36-6 40-10 36-12 28-11 20-9 28-13 19-10 24-13 28-17 21-13 27-18 23-16 5-5-3-6-16-15-12-12-8-7-20-20-7-8-12-12-7-8-13-14-9-11-9-10-11-14-13-16-14-19-15-22-10-16-10-19-6-16-4-18v-22l3-13 8-16 7-10 12-12 15-10 16-7 15-4 14-2h21l19 3 21 6 19 8 17 10 12 9 11 9 12 11 12 12 13 17 9 15 4 8 5-4 7-8 24-26 15-14 14-11 21-14 21-11 16-6 14-3 8-1h14l17 3 12 5 10 7 8 8 6 10 4 12 2 12v17l-3 17-6 20-10 25-12 25-14 24-12 18-10 14-13 17-9 11-11 13-9 11-7 7-7 8-8 8-7 8-9 9-8 7-9 9-8 7-14 12-4 4 1 4 30 20 21 13 27 14 16 6 18 4 9 1h9l18-3 16-6 14-8 13-10 18-18 11-14 11-15 13-21 14-24 16-28 14-24 17-29 17-28 14-23 24-38 38-57 14-20 26-36 16-21 14-18 9-11 14-17 9-10 7-8 9-10 12-13 24-24 8-7 16-13 20-14 21-12 19-9 19-5 14-1 14 2 10 4 6 4 6 5 6 10 3 9 1 6v10l-3 17-7 19-14 27-16 27-15 24-12 19-17 28-13 23-15 28-15 33v3l20-15 12-8 21-13 24-13 19-9 27-10 24-6 19-3h22l17 4 13 7 8 8 6 12 2 9v10l-3 15-8 20-11 21-12 20-16 25-28 42-16 25-15 25-13 23-11 21-10 24-6 18-5 24v18l4 16 6 11 9 11 13 10 16 9 19 8 18 6 24 5 24 2h12l23-2 26-5 26-8 27-11 25-13 17-11 16-12 15-13 14-14 9-11 8-10 10-15 8-16 4-13 2-12v-16l-3-15-5-12-6-9-5-5-9-7-13-5-13-2-13 1-23 6-10 1-10-2-6-3-5-4-4-7-1-9 3-8 7-8 16-8 16-5 21-3h14l21 3 16 5 16 8 11 7 12 11 10 11 8 13 6 12 5 16 2 11v25l-4 20-7 21-12 24-12 18-8 10-12 14-15 15-11 9-15 12-27 18-19 11-23 12-27 11-23 7-21 5-28 4-13 1h-36l-27-3-24-5-23-7-21-9-21-11-15-10-13-11-9-9-11-15-8-17-4-15-2-14v-16l3-22 6-23 7-20 13-29 15-28 15-25 13-21 28-42 15-23 12-19 16-28 8-17 2-9-11 1-17 4-18 6-20 9-23 12-24 15-17 13-9 7-11 9-17 14-16 12-12 6-10 3h-17l-11-4-8-6-6-9-2-7v-17l4-18 7-20 13-32 16-33 15-28 14-24 17-28 12-19 15-24 15-26 11-23 3-10-10 4-19 12-19 14-15 13-15 14-8 8-7 8-11 12-9 11-13 15-11 14-13 16-10 13-16 21-12 17-13 18-15 22-18 27-11 17-14 22-13 21-17 28-13 22-14 24-16 28-14 24-15 25-22 33-13 17-12 14-11 11-11 9-13 10-21 12-20 8-16 4-13 2-22 1-25-3-24-6-24-9-26-13-26-16-23-16-14-9-7-1-10 5-18 13-39 26-17 11-15 9-26 15-32 17-29 14-33 14-29 11-33 11-38 10-36 7-30 4-26 2h-46l-33-3-36-6-32-8-36-12-24-10-17-8-23-13-19-13-13-10-14-12-22-22-11-14-9-12-12-19-12-23-10-25-6-18-7-28-4-27-1-11v-41l3-29 5-29 7-30 10-34 12-35 12-29 14-29 13-25 16-26 11-16 14-19 13-16 12-14 14-15 13-13 8-7 13-11 16-12 20-13 18-10 16-8 15-6 15-5 24-5zm333 255-16 3-12 6-6 5-6 9-2 6v17l5 16 9 19 12 18 12 17 16 21 13 16 9 11 13 15 11 12 7 8 14 15 57 57 7 5 6-1 15-13 12-11 8-7 30-30 7-8 9-10 9-11 14-17 12-16 14-20 12-20 12-22 11-26 6-19 2-9v-15l-3-9-3-2h-7l-15 5-17 9-17 12-14 12-21 21-9 11-9 10-9 11-13 13-10 7-12 5-4 1h-15l-12-5-9-8-6-10-9-26-8-15-8-11-11-12-12-11-18-13-16-9-14-5-12-2z" fill="#091631"/>
</svg>
